@startuml
'http://plantuml.com/skinparam.html
skinparam handwritten true
skinparam monochrome true
skinparam packageStyle rect
skinparam defaultFontName FG Virgil
skinparam shadowing false

class Sistema <<client>>
class ValidacaoServer
class ValidacaoDeamon
class MessageParser
class MessageBuilder
class HandleClient <<thread>>


ValidacaoDeamon --> ValidacaoServer
ValidacaoDeamon : new()
ValidacaoDeamon : start()

ValidacaoServer --> HandleClient
ValidacaoServer : accept()
ValidacaoServer : start()

HandleClient --> MessageParser
HandleClient --> MessageBuilder
HandleClient : parse()
HandleClient : execute()
HandleClient : build()

Sistema --> ValidacaoServer

@enduml